<?xml version="1.0" encoding="utf-8"?>
<!-- Generator: Adobe Illustrator 23.0.0, SVG Export Plug-In . SVG Version: 6.00 Build 0)  -->
<svg version="1.1" xmlns="http://www.w3.org/2000/svg" xmlns:xlink="http://www.w3.org/1999/xlink" x="0px" y="0px"
	 viewBox="0 0 750 500" style="enable-background:new 0 0 750 500;" xml:space="preserve">
<style type="text/css">
	.st0{fill:#44B4B8;}
	.st1{fill:#3B8E96;}
	.st2{fill:none;stroke:#FFAE00;stroke-width:3;stroke-miterlimit:10;}
	.st3{fill:none;stroke:#FFAE00;stroke-width:3;stroke-miterlimit:10;stroke-dasharray:10.6491,10.6491;}
	.st4{fill:none;stroke:#FFAE00;stroke-width:3;stroke-miterlimit:10;stroke-dasharray:9.595,9.595;}
	.st5{fill:#D4D4D4;}
	.st6{opacity:0.61;fill:#939598;}
	.st7{fill:#FAFAFA;}
	.st8{fill:#9BABC2;}
	.st9{fill:#B0BFD4;}
	.st10{fill:#2D4961;}
	.st11{fill:none;stroke:#FFAE00;stroke-width:5;stroke-miterlimit:10;}
	.st12{fill:none;stroke:#FFFCC7;stroke-width:5;stroke-miterlimit:10;}
	.st13{fill:#FFAE00;}
	.st14{fill:#FFFFFF;}
	.st15{font-family:'RobotoCondensed-Regular';}
	.st16{font-size:60.7827px;}
	.st17{fill:none;stroke:#FFFFFF;stroke-width:2;stroke-linecap:round;stroke-linejoin:round;stroke-miterlimit:10;}
	.st18{fill:none;stroke:#FFAE00;stroke-width:3;stroke-miterlimit:10;stroke-dasharray:11.004,11.004;}
	.st19{fill:none;stroke:#FFAE00;stroke-width:3;stroke-miterlimit:10;stroke-dasharray:10.6945,10.6945;}
	.st20{font-size:43.3209px;}
	.st21{fill:none;stroke:#FFFFFF;stroke-width:3;stroke-miterlimit:10;}
</style>
<g id="BACKGROUND">
	<rect id="XMLID_3_" x="125" class="st0" width="500" height="500"/>
	<rect id="XMLID_8_" class="st1" width="750" height="500"/>
</g>
<g id="OBJECTS">
	<g id="XMLID_2_">
		<g id="XMLID_776_">
			<line id="XMLID_783_" class="st2" x1="552" y1="230.33" x2="552" y2="235.83"/>
			<line id="XMLID_781_" class="st3" x1="552" y1="246.48" x2="552" y2="305.05"/>
			<polyline id="XMLID_780_" class="st2" points="552,310.37 552,315.87 546.5,315.87 			"/>
			<line id="XMLID_778_" class="st4" x1="536.91" y1="315.87" x2="484.13" y2="315.87"/>
			<line id="XMLID_777_" class="st2" x1="479.34" y1="315.87" x2="473.84" y2="315.87"/>
		</g>
	</g>
	<g id="XMLID_692_">
		<rect id="XMLID_12_" x="341.06" y="337" class="st5" width="87.87" height="34"/>
		<path id="XMLID_33_" class="st6" d="M526.11,384.17c0,3.41-63.18,6.17-141.11,6.17s-141.11-2.76-141.11-6.17
			c0-3.41,63.18-6.17,141.11-6.17S526.11,380.76,526.11,384.17z"/>
		<path id="XMLID_856_" class="st7" d="M459.51,382H310.49l0,0c0-7.73,6.27-14,14-14h121.01C453.24,368,459.51,374.27,459.51,382
			L459.51,382z"/>
		<rect id="XMLID_782_" x="341.06" y="337" class="st8" width="87.87" height="17"/>
		<g id="XMLID_763_">
			<g id="XMLID_1_">
				<path id="XMLID_25_" class="st9" d="M532.47,169.12v161.76c0,8.81-6.38,15.95-14.25,15.95h-264.5
					c-7.87,0-14.25-7.14-14.25-15.95V169.12c0-8.81,6.38-15.95,14.25-15.95h264.5C526.09,153.17,532.47,160.31,532.47,169.12z"/>
				<path id="XMLID_759_" class="st7" d="M532.47,168.8v158.56c0,8.64-6.38,15.63-14.25,15.63h-264.5c-7.87,0-14.25-7-14.25-15.63
					V168.8c0-8.64,6.38-15.63,14.25-15.63h264.5C526.09,153.17,532.47,160.17,532.47,168.8z"/>
				<path id="XMLID_16_" class="st10" d="M253.72,329c-0.79,0-2.25-1.45-2.25-3.81v-156.2c0-2.37,1.46-3.81,2.25-3.81h264.5
					c0.79,0,2.25,1.45,2.25,3.81v156.2c0,2.37-1.46,3.81-2.25,3.81H253.72z"/>
			</g>
		</g>
		<line id="XMLID_20_" class="st11" x1="270" y1="181.84" x2="310.49" y2="181.84"/>
		<line id="XMLID_34_" class="st12" x1="270" y1="198" x2="436.41" y2="198"/>
		<line id="XMLID_38_" class="st12" x1="270" y1="214.16" x2="380.24" y2="214.16"/>
		<line id="XMLID_846_" class="st11" x1="390.11" y1="214.16" x2="433.08" y2="214.16"/>
		<line id="XMLID_43_" class="st11" x1="270" y1="230.33" x2="310.49" y2="230.33"/>
		<line id="XMLID_849_" class="st12" x1="321.35" y1="230.33" x2="489" y2="230.33"/>
		<line id="XMLID_744_" class="st12" x1="270" y1="246.49" x2="489" y2="246.49"/>
		<line id="XMLID_746_" class="st12" x1="270" y1="262.66" x2="391.81" y2="262.66"/>
		<line id="XMLID_850_" class="st11" x1="401.06" y1="262.66" x2="444.33" y2="262.66"/>
		<line id="XMLID_761_" class="st11" x1="270" y1="278.83" x2="310.49" y2="278.83"/>
		<line id="XMLID_853_" class="st12" x1="320.57" y1="278.83" x2="477.17" y2="278.83"/>
		<line id="XMLID_785_" class="st12" x1="270" y1="294.99" x2="477.17" y2="294.99"/>
		<line id="XMLID_815_" class="st12" x1="270" y1="311.16" x2="383.63" y2="311.16"/>
		<line id="XMLID_854_" class="st11" x1="395.69" y1="311.16" x2="437.33" y2="311.16"/>
		<line id="XMLID_22_" class="st12" x1="325.91" y1="181.84" x2="401.14" y2="181.84"/>
	</g>
	<g id="XMLID_755_">
		<path id="XMLID_28_" class="st6" d="M550.01,217.44h-98.67c-6.64,0-12.03-5.39-12.03-12.03v-67.85c0-6.64,5.39-12.03,12.03-12.03
			h98.67c6.64,0,12.03,5.39,12.03,12.03v67.85C562.04,212.06,556.66,217.44,550.01,217.44z"/>
		<path id="XMLID_26_" class="st13" d="M558.87,212.46H460.2c-6.64,0-12.03-5.39-12.03-12.03v-67.85c0-6.64,5.39-12.03,12.03-12.03
			h98.67c6.64,0,12.03,5.39,12.03,12.03v67.85C570.9,207.08,565.52,212.46,558.87,212.46z"/>
		<text id="XMLID_31_" transform="matrix(1 0 0 1 473.8352 183.9861)" class="st14 st15 st16">&lt;/&gt;</text>
	</g>
	<g id="XMLID_784_">
		<g id="XMLID_821_">
			<path id="XMLID_843_" class="st6" d="M406.74,90.49c-9.46,0-17.13,7.67-17.13,17.13s7.67,17.13,17.13,17.13
				s17.13-7.67,17.13-17.13S416.2,90.49,406.74,90.49z M406.74,114.37c-3.73,0-6.75-3.02-6.75-6.75s3.02-6.75,6.75-6.75
				c3.73,0,6.75,3.02,6.75,6.75S410.47,114.37,406.74,114.37z"/>
			<path id="XMLID_818_" class="st6" d="M441.91,112.86v-10.48h-7.43c-0.73-3.9-2.26-7.51-4.42-10.67l5.25-5.25l-7.41-7.41
				l-5.25,5.25c-3.16-2.16-6.77-3.69-10.67-4.42v-7.43H401.5v7.43c-3.9,0.73-7.51,2.26-10.67,4.42l-5.25-5.25l-7.41,7.41l5.25,5.25
				c-2.16,3.16-3.69,6.77-4.42,10.67h-7.43v10.48h7.43c0.73,3.9,2.26,7.51,4.42,10.67l-5.25,5.25l7.41,7.41l5.25-5.25
				c3.16,2.16,6.77,3.69,10.67,4.42v7.43h10.48v-7.43c3.9-0.73,7.51-2.26,10.67-4.42l5.25,5.25l7.41-7.41l-5.25-5.25
				c2.16-3.16,3.69-6.77,4.42-10.67H441.91z M427.4,107.62c0,11.41-9.25,20.65-20.65,20.65c-11.41,0-20.65-9.25-20.65-20.65
				s9.25-20.65,20.65-20.65C418.15,86.97,427.4,96.21,427.4,107.62z"/>
			<path id="XMLID_831_" class="st13" d="M409.74,85.49c-9.46,0-17.13,7.67-17.13,17.13s7.67,17.13,17.13,17.13
				s17.13-7.67,17.13-17.13S419.2,85.49,409.74,85.49z M409.74,109.37c-3.73,0-6.75-3.02-6.75-6.75s3.02-6.75,6.75-6.75
				c3.73,0,6.75,3.02,6.75,6.75S413.47,109.37,409.74,109.37z"/>
			<path id="XMLID_835_" class="st13" d="M444.91,107.86V97.38h-7.43c-0.73-3.9-2.26-7.51-4.42-10.67l5.25-5.25l-7.41-7.41
				l-5.25,5.25c-3.16-2.16-6.77-3.69-10.67-4.42v-7.43H404.5v7.43c-3.9,0.73-7.51,2.26-10.67,4.42l-5.25-5.25l-7.41,7.41l5.25,5.25
				c-2.16,3.16-3.69,6.77-4.42,10.67h-7.43v10.48h7.43c0.73,3.9,2.26,7.51,4.42,10.67l-5.25,5.25l7.41,7.41l5.25-5.25
				c3.16,2.16,6.77,3.69,10.67,4.42v7.43h10.48v-7.43c3.9-0.73,7.51-2.26,10.67-4.42l5.25,5.25l7.41-7.41l-5.25-5.25
				c2.16-3.16,3.69-6.77,4.42-10.67H444.91z M430.4,102.62c0,11.41-9.25,20.65-20.65,20.65c-11.41,0-20.65-9.25-20.65-20.65
				s9.25-20.65,20.65-20.65C421.15,81.97,430.4,91.21,430.4,102.62z"/>
		</g>
		<path id="XMLID_779_" class="st17" d="M410.71,126.33c13.09,0,23.7-10.61,23.7-23.7c0-13.09-10.61-23.7-23.7-23.7 M409.74,92.52
			c5.58,0,10.1,4.52,10.1,10.1"/>
	</g>
	<g id="XMLID_4_">
		<g id="XMLID_9_">
			<path id="XMLID_32_" class="st6" d="M468.64,74.22c-7.29,0-13.19,5.91-13.19,13.19c0,7.29,5.91,13.19,13.19,13.19
				c7.29,0,13.19-5.91,13.19-13.19C481.83,80.13,475.92,74.22,468.64,74.22z M468.64,92.61c-2.87,0-5.2-2.33-5.2-5.2
				c0-2.87,2.33-5.2,5.2-5.2s5.2,2.33,5.2,5.2C473.84,90.29,471.51,92.61,468.64,92.61z"/>
			<path id="XMLID_24_" class="st6" d="M495.71,91.45v-8.07H490c-0.56-3-1.74-5.79-3.4-8.22l4.04-4.04l-5.71-5.71l-4.04,4.04
				c-2.43-1.66-5.21-2.84-8.22-3.4v-5.72h-8.07v5.72c-3,0.56-5.79,1.74-8.22,3.4l-4.04-4.04l-5.71,5.71l4.04,4.04
				c-1.66,2.43-2.84,5.21-3.4,8.22h-5.72v8.07h5.72c0.56,3,1.74,5.79,3.4,8.22l-4.04,4.04l5.71,5.71l4.04-4.04
				c2.43,1.66,5.21,2.84,8.22,3.4v5.72h8.07v-5.72c3-0.56,5.79-1.74,8.22-3.4l4.04,4.04l5.71-5.71l-4.04-4.04
				c1.66-2.43,2.84-5.21,3.4-8.22H495.71z M484.54,87.42c0,8.78-7.12,15.9-15.9,15.9s-15.9-7.12-15.9-15.9s7.12-15.9,15.9-15.9
				S484.54,78.63,484.54,87.42z"/>
			<path id="XMLID_19_" class="st13" d="M470.95,70.37c-7.29,0-13.19,5.91-13.19,13.19s5.91,13.19,13.19,13.19
				c7.29,0,13.19-5.91,13.19-13.19S478.23,70.37,470.95,70.37z M470.95,88.76c-2.87,0-5.2-2.33-5.2-5.2s2.33-5.2,5.2-5.2
				c2.87,0,5.2,2.33,5.2,5.2S473.82,88.76,470.95,88.76z"/>
			<path id="XMLID_10_" class="st13" d="M498.02,87.6v-8.07h-5.72c-0.56-3-1.74-5.79-3.4-8.22l4.04-4.04l-5.71-5.71l-4.04,4.04
				c-2.43-1.66-5.21-2.84-8.22-3.4v-5.72h-8.07v5.72c-3,0.56-5.79,1.74-8.22,3.4l-4.04-4.04l-5.71,5.71l4.04,4.04
				c-1.66,2.43-2.84,5.21-3.4,8.22h-5.72v8.07h5.72c0.56,3,1.74,5.79,3.4,8.22l-4.04,4.04l5.71,5.71l4.04-4.04
				c2.43,1.66,5.21,2.84,8.22,3.4v5.72h8.07v-5.72c3-0.56,5.79-1.74,8.22-3.4l4.04,4.04l5.71-5.71l-4.04-4.04
				c1.66-2.43,2.84-5.21,3.4-8.22H498.02z M486.85,83.57c0,8.78-7.12,15.9-15.9,15.9s-15.9-7.12-15.9-15.9s7.12-15.9,15.9-15.9
				S486.85,74.78,486.85,83.57z"/>
		</g>
		<path id="XMLID_5_" class="st17" d="M471.69,101.82c10.08,0,18.25-8.17,18.25-18.25s-8.17-18.25-18.25-18.25 M470.95,75.79
			c4.3,0,7.78,3.48,7.78,7.78"/>
	</g>
	<g id="XMLID_41_">
		<g id="XMLID_758_">
			<line id="XMLID_767_" class="st2" x1="231.33" y1="239.67" x2="225.83" y2="239.67"/>
			<polyline id="XMLID_766_" class="st2" points="216.17,239.67 210.67,239.67 210.67,234.17 			"/>
			<line id="XMLID_765_" class="st18" x1="210.67" y1="223.16" x2="210.67" y2="118.62"/>
			<polyline id="XMLID_764_" class="st2" points="210.67,113.12 210.67,107.62 216.17,107.62 			"/>
			<line id="XMLID_762_" class="st19" x1="226.86" y1="107.62" x2="349.85" y2="107.62"/>
			<line id="XMLID_760_" class="st2" x1="355.2" y1="107.62" x2="360.7" y2="107.62"/>
		</g>
	</g>
	<g id="XMLID_741_">
		<g id="XMLID_680_">
			<path id="XMLID_743_" class="st6" d="M276.61,302.67H175.48c-5.96,0-10.8-4.84-10.8-10.8v-52.5c0-5.96,4.84-10.8,10.8-10.8
				h101.13c5.96,0,10.8,4.84,10.8,10.8v52.5C287.41,297.83,282.57,302.67,276.61,302.67z"/>
			<path id="XMLID_742_" class="st13" d="M285.47,295.65H184.34c-5.96,0-10.8-4.84-10.8-10.8v-52.5c0-5.96,4.84-10.8,10.8-10.8
				h101.13c5.96,0,10.8,4.84,10.8,10.8v52.5C296.27,290.82,291.43,295.65,285.47,295.65z"/>
		</g>
		<g id="XMLID_42_">
			<text transform="matrix(1 0 0 1 186.6662 272.825)" class="st14 st15 st20">HTML</text>
		</g>
	</g>
	<g id="XMLID_745_">
		<g id="XMLID_750_">
			<path id="XMLID_752_" class="st6" d="M500.89,360.56h-52.23c-3.87,0-7-3.13-7-7v-43.67c0-3.87,3.13-7,7-7h52.23
				c3.87,0,7,3.13,7,7v43.67C507.89,357.43,504.76,360.56,500.89,360.56z"/>
			<path id="XMLID_751_" class="st13" d="M511.56,346h-52.23c-3.87,0-7-3.13-7-7v-43.67c0-3.87,3.13-7,7-7h52.23c3.87,0,7,3.13,7,7
				V339C518.56,342.87,515.43,346,511.56,346z"/>
			<g id="XMLID_756_">
				<path id="XMLID_754_" class="st21" d="M479.84,331.79h-0.55c-4.96,0-8.99-4.02-8.99-8.99v-5.44c0-4.96,4.02-8.99,8.99-8.99h0.55
					c4.96,0,8.99,4.02,8.99,8.99v5.44C488.82,327.77,484.8,331.79,479.84,331.79z"/>
				<path id="XMLID_747_" class="st14" d="M489.76,344.17h-20.4c-2.24,0-4.05-1.81-4.05-4.05v-15.98c0-2.24,1.81-4.05,4.05-4.05
					h20.4c2.24,0,4.05,1.81,4.05,4.05v15.98C493.81,342.35,491.99,344.17,489.76,344.17z"/>
				<g id="XMLID_753_">
					<circle id="XMLID_748_" class="st13" cx="479.56" cy="330.85" r="3.94"/>
					<rect id="XMLID_749_" x="477.39" y="332.1" class="st13" width="4.33" height="5.25"/>
				</g>
			</g>
		</g>
	</g>
</g>
<g id="DESIGNED_BY_FREEPIK">
</g>
</svg>
